<svg xmlns="http://www.w3.org/2000/svg" viewBox="22 21 362 362">
  <style>
    path { fill: #b45309; stroke: #b45309; stroke-width: 17; }
    @media (prefers-color-scheme: dark) {
      path { fill: #e4930a; stroke: #e4930a; }
    }
  </style>
  <path d="M195.056 38.293 C 193.477 38.426,189.314 38.766,185.805 39.048 C 122.601 44.126,71.029 81.488,46.424 140.024 C 39.823 155.727,34.203 179.675,34.492 190.863 C 34.529 192.282,34.571 192.161,34.801 189.971 C 41.851 123.058,89.739 67.603,154.642 51.195 C 161.235 49.528,162.328 49.474,158.660 50.998 C 137.162 59.929,112.409 78.274,92.330 100.156 C 91.285 101.294,89.018 103.724,87.290 105.557 C 61.672 132.740,46.249 171.293,46.254 208.134 C 46.264 289.726,108.944 359.323,188.038 365.565 C 206.334 367.009,233.437 365.432,248.786 362.030 C 310.203 348.416,356.990 300.171,370.824 236.187 C 372.078 230.386,371.705 230.603,370.178 236.563 C 354.103 299.323,305.879 344.735,244.379 355.027 C 237.200 356.229,236.843 356.155,241.556 354.439 C 268.743 344.542,292.905 328.326,316.692 304.013 C 376.589 242.792,375.265 144.417,313.716 82.773 C 282.181 51.190,238.058 34.650,195.056 38.293 M199.183 47.041 C 219.414 50.468,239.124 58.017,258.148 69.624 C 262.166 72.076,262.045 72.096,255.964 69.984 C 205.174 52.344,143.536 60.984,103.215 91.396 C 101.709 92.532,100.397 93.461,100.299 93.461 C 100.043 93.461,106.806 87.011,110.367 83.861 C 126.811 69.309,150.912 54.910,168.928 48.874 C 176.425 46.362,190.236 45.525,199.183 47.041 M224.607 49.465 C 257.132 55.971,282.133 69.687,306.041 94.141 C 313.201 101.464,314.779 103.419,310.632 99.828 C 301.617 92.022,288.175 83.378,276.710 78.014 C 275.128 77.274,271.971 75.366,269.692 73.773 C 255.577 63.907,240.521 56.125,224.721 50.531 C 219.525 48.691,219.498 48.443,224.607 49.465 M213.557 68.270 C 278.203 76.532,327.600 130.956,331.471 198.185 C 332.991 224.585,321.590 258.451,302.557 284.069 C 277.812 317.374,238.068 337.667,201.645 335.593 C 139.072 332.029,86.311 281.722,78.173 217.863 C 70.173 155.085,111.314 91.860,172.531 72.854 C 188.678 67.841,200.160 66.558,213.557 68.270 M166.188 70.309 C 166.188 70.382,165.004 70.834,163.557 71.312 C 119.122 86.009,81.392 131.973,71.485 183.480 C 66.101 211.467,71.440 248.243,84.465 272.887 C 85.416 274.687,85.325 274.098,84.223 271.324 C 79.527 259.502,75.282 243.609,73.859 232.518 C 73.268 227.914,72.325 216.352,72.500 215.847 C 72.571 215.640,72.732 216.619,72.858 218.022 C 75.886 251.867,92.383 287.047,117.191 312.567 C 119.792 315.243,120.168 315.739,119.139 315.137 C 87.531 296.644,64.841 268.750,57.918 239.872 C 48.923 202.355,56.363 163.016,79.014 128.323 C 98.034 99.193,124.089 80.673,158.373 71.918 C 164.700 70.302,166.188 69.996,166.188 70.309 M260.017 74.652 C 268.925 77.751,270.938 78.673,273.183 80.681 C 281.308 87.949,283.013 89.518,284.848 91.418 C 286.946 93.589,286.712 93.459,282.742 90.244 C 277.071 85.650,268.294 80.086,259.809 75.705 C 256.651 74.075,254.161 72.738,254.275 72.734 C 254.390 72.730,256.973 73.594,260.017 74.652 M290.271 88.995 C 308.321 99.742,326.076 116.922,334.303 131.601 C 354.514 167.664,357.827 204.031,344.515 243.700 C 328.004 292.900,293.817 323.857,245.348 333.496 C 242.509 334.060,241.596 333.970,243.599 333.322 C 281.766 320.989,317.923 283.226,331.240 241.786 C 332.058 239.242,333.500 234.793,334.446 231.898 C 337.038 223.958,339.732 213.629,339.319 213.216 C 339.246 213.143,338.489 215.448,337.636 218.338 C 336.030 223.779,335.605 224.695,336.178 221.484 C 338.014 211.198,338.648 188.984,337.379 179.426 C 335.073 162.052,330.208 145.950,321.453 126.707 C 319.145 121.633,318.700 121.297,320.764 126.185 C 325.972 138.521,331.749 158.709,332.804 168.262 L 332.980 169.856 332.649 168.581 C 332.467 167.879,331.890 165.510,331.367 163.317 C 325.031 136.751,308.398 108.243,287.766 88.593 C 284.683 85.656,284.561 85.396,287.002 86.963 C 288.010 87.611,289.482 88.525,290.271 88.995 M99.522 304.765 C 107.487 310.976,117.091 317.226,125.518 321.681 C 127.448 322.701,129.601 324.073,130.303 324.730 C 140.426 334.206,165.224 348.862,178.569 353.255 C 181.936 354.363,179.846 354.081,174.034 352.643 C 145.425 345.564,119.068 329.405,97.794 305.901 C 89.476 296.711,88.041 294.835,92.424 298.878 C 93.784 300.132,96.978 302.781,99.522 304.765 M121.691 309.438 C 130.366 316.654,138.924 322.333,149.123 327.639 C 155.072 330.735,154.744 330.751,146.645 327.761 C 132.624 322.585,132.338 322.387,119.986 309.250 C 112.936 301.753,111.508 300.026,115.649 304.003 C 117.393 305.679,120.112 308.124,121.691 309.438 M303.959 315.243 C 280.326 335.451,258.390 347.860,232.695 355.554 C 219.603 359.475,192.844 355.157,170.682 345.549 L 169.275 344.939 178.497 344.546 C 188.069 344.139,194.352 343.638,201.435 342.720 C 204.297 342.349,207.560 342.198,211.962 342.233 C 245.616 342.502,277.912 333.317,300.797 316.969 C 304.002 314.680,305.704 313.751,303.959 315.243 M158.214 334.247 C 168.300 337.021,184.250 340.252,191.707 341.032 C 193.724 341.243,195.511 341.535,195.678 341.680 C 195.863 341.842,195.829 341.946,195.592 341.946 C 195.378 341.946,192.442 342.307,189.069 342.748 C 182.360 343.624,176.170 344.127,170.965 344.217 L 167.608 344.275 163.447 342.159 C 157.006 338.884,143.404 330.574,142.749 329.514 C 142.669 329.385,145.075 330.111,148.096 331.128 C 151.117 332.144,155.670 333.548,158.214 334.247 "/>
</svg>
